<svg width="48" height="48" viewBox="0 0 48 48" fill="none" xmlns="http://www.w3.org/2000/svg">
<path d="M27.6005 14.0225C26.386 14.7492 26.3601 16.4627 27.4824 17.2432H11.3955L10.289 30.5371H35.9218L35.4228 24.5391C35.801 24.3959 36.1387 24.1237 36.3603 23.7188L36.708 23.084C37.1765 22.2278 37.7477 21.4383 38.4052 20.7305L39.1972 30.2461C39.2791 31.2153 38.993 32.0603 38.3379 32.7803C37.6827 33.5003 36.8774 33.8604 35.9218 33.8604H32.9326V35.2725C32.9326 35.7987 31.9703 36.2492 30.0459 36.623C28.1214 36.9969 25.8078 37.1836 23.1054 37.1836C20.4031 37.1836 18.0894 36.9969 16.165 36.623C14.2407 36.2492 13.2783 35.7987 13.2783 35.2725V33.8604H10.289C9.33388 33.8602 8.529 33.5001 7.87398 32.7803C7.21884 32.0603 6.93174 31.2154 7.01363 30.2461L8.1191 16.9531C8.17368 16.0948 8.51499 15.3745 9.14254 14.793C9.77038 14.2114 10.5219 13.9199 11.3955 13.9199H27.7714L27.6005 14.0225Z" fill="#FF7A1A"/>
<path d="M34.0549 10.9272C34.2159 10.5256 34.7843 10.5256 34.9453 10.9272C35.7772 13.0023 37.4726 14.6116 39.5883 15.3343L39.6475 15.3545C40.0881 15.505 40.0881 16.128 39.6475 16.2785L39.5883 16.2987C37.4726 17.0214 35.7772 18.6307 34.9453 20.7058C34.7843 21.1074 34.2159 21.1074 34.0549 20.7058C33.223 18.6307 31.5276 17.0214 29.4119 16.2987L29.3527 16.2785C28.9121 16.128 28.9121 15.505 29.3527 15.3545L29.4119 15.3343C31.5276 14.6116 33.223 13.0023 34.0549 10.9272Z" fill="#191919"/>
</svg>
